<svg xmlns="http://www.w3.org/2000/svg" xmlns:xlink="http://www.w3.org/1999/xlink" width="2000" zoomAndPan="magnify" viewBox="0 0 1500 1499.999933" height="2000" preserveAspectRatio="xMidYMid meet" version="1.0"><defs><clipPath id="1f419253b3"><path d="M 35.488281 35.488281 L 1464.511719 35.488281 L 1464.511719 1464.511719 L 35.488281 1464.511719 Z M 35.488281 35.488281 " clip-rule="nonzero"/></clipPath><clipPath id="9a1a24f3f9"><path d="M 750 35.488281 C 355.386719 35.488281 35.488281 355.386719 35.488281 750 C 35.488281 1144.613281 355.386719 1464.511719 750 1464.511719 C 1144.613281 1464.511719 1464.511719 1144.613281 1464.511719 750 C 1464.511719 355.386719 1144.613281 35.488281 750 35.488281 Z M 750 35.488281 " clip-rule="nonzero"/></clipPath><clipPath id="adf034f342"><path d="M 0.488281 0.488281 L 1429.511719 0.488281 L 1429.511719 1429.511719 L 0.488281 1429.511719 Z M 0.488281 0.488281 " clip-rule="nonzero"/></clipPath><clipPath id="c6111933b2"><path d="M 715 0.488281 C 320.386719 0.488281 0.488281 320.386719 0.488281 715 C 0.488281 1109.613281 320.386719 1429.511719 715 1429.511719 C 1109.613281 1429.511719 1429.511719 1109.613281 1429.511719 715 C 1429.511719 320.386719 1109.613281 0.488281 715 0.488281 Z M 715 0.488281 " clip-rule="nonzero"/></clipPath><clipPath id="d81e5dc4e3"><rect x="0" width="1430" y="0" height="1430"/></clipPath><clipPath id="9d195c11df"><path d="M 75.1875 75.1875 L 1424.4375 75.1875 L 1424.4375 1424.4375 L 75.1875 1424.4375 Z M 75.1875 75.1875 " clip-rule="nonzero"/></clipPath></defs><g clip-path="url(#1f419253b3)"><g clip-path="url(#9a1a24f3f9)"><g transform="matrix(1, 0, 0, 1, 35, 35)"><g clip-path="url(#d81e5dc4e3)"><g clip-path="url(#adf034f342)"><g clip-path="url(#c6111933b2)"><path fill="#304059" d="M 0.488281 0.488281 L 1429.511719 0.488281 L 1429.511719 1429.511719 L 0.488281 1429.511719 Z M 0.488281 0.488281 " fill-opacity="1" fill-rule="nonzero"/></g></g></g></g></g></g><path fill="#ffffff" d="M 750.453125 665.644531 C 703.867188 665.644531 665.953125 703.558594 665.953125 750.148438 C 665.953125 796.746094 703.867188 834.640625 750.453125 834.640625 C 797.054688 834.640625 834.964844 796.746094 834.964844 750.148438 C 834.964844 703.558594 797.054688 665.644531 750.453125 665.644531 Z M 750.386719 819.242188 C 712.230469 819.242188 681.304688 788.300781 681.304688 750.148438 C 681.304688 711.996094 712.230469 681.074219 750.386719 681.074219 C 788.53125 681.074219 819.464844 711.996094 819.464844 750.148438 C 819.464844 788.300781 788.53125 819.242188 750.386719 819.242188 Z M 750.386719 819.242188 " fill-opacity="1" fill-rule="nonzero"/><path fill="#ffffff" d="M 750.453125 692.445312 C 718.601562 692.445312 692.769531 718.277344 692.769531 750.148438 C 692.769531 782.027344 718.601562 807.851562 750.453125 807.851562 C 782.324219 807.851562 808.152344 782.027344 808.152344 750.148438 C 808.152344 718.277344 782.324219 692.445312 750.453125 692.445312 Z M 750.386719 785.3125 C 730.953125 785.3125 715.21875 769.558594 715.21875 750.148438 C 715.21875 730.71875 730.953125 714.992188 750.386719 714.992188 C 769.804688 714.992188 785.550781 730.71875 785.550781 750.148438 C 785.550781 769.558594 769.804688 785.3125 750.386719 785.3125 Z M 750.386719 785.3125 " fill-opacity="1" fill-rule="nonzero"/><g clip-path="url(#9d195c11df)"><path fill="#ffffff" d="M 1252.371094 717.832031 C 1231.796875 723.804688 1214.855469 721.058594 1202.417969 716.28125 L 1202.417969 706.734375 C 1202.417969 699.625 1194.214844 693.890625 1184.0625 693.890625 C 1173.925781 693.890625 1165.703125 699.625 1165.703125 706.734375 L 1165.703125 730.324219 L 1149.515625 730.324219 C 1144.917969 635.953125 1107.519531 550.222656 1048.542969 484.167969 L 1060.621094 472.082031 L 1077.203125 488.652344 C 1082.21875 493.679688 1092.113281 491.921875 1099.289062 484.753906 C 1106.449219 477.589844 1108.199219 467.699219 1103.171875 462.679688 L 1096.425781 455.929688 C 1101.84375 443.757812 1111.863281 429.863281 1130.652344 419.523438 C 1130.652344 419.523438 1291.753906 337.5625 1229.378906 275.203125 C 1166.992188 212.824219 1085.046875 373.917969 1085.046875 373.917969 C 1074.722656 392.71875 1060.800781 402.738281 1048.625 408.144531 L 1041.882812 401.402344 C 1036.875 396.386719 1026.984375 398.125 1019.816406 405.296875 C 1012.644531 412.464844 1010.910156 422.355469 1015.921875 427.367188 L 1032.601562 444.050781 L 1020.734375 455.921875 C 954.019531 394.613281 866.425781 355.691406 769.832031 351.078125 L 769.832031 333.722656 L 793.261719 333.722656 C 800.363281 333.722656 806.125 325.511719 806.125 315.367188 C 806.125 305.226562 800.363281 297.015625 793.261719 297.015625 L 783.730469 297.015625 C 778.949219 284.59375 776.199219 267.652344 782.175781 247.070312 C 782.175781 247.070312 838.15625 75.1875 749.925781 75.1875 C 661.714844 75.1875 717.691406 247.070312 717.691406 247.070312 C 723.667969 267.652344 720.921875 284.59375 716.132812 297.015625 L 706.605469 297.015625 C 699.496094 297.015625 693.738281 305.226562 693.738281 315.367188 C 693.738281 325.511719 699.496094 333.722656 706.605469 333.722656 L 730.183594 333.722656 L 730.183594 351.113281 C 634.429688 355.871094 547.558594 394.386719 481.1875 454.984375 L 470.210938 444.015625 L 486.78125 427.410156 C 491.808594 422.402344 490.0625 412.507812 482.894531 405.355469 C 475.722656 398.175781 465.839844 396.453125 460.820312 401.464844 L 454.074219 408.214844 C 441.902344 402.789062 427.980469 392.777344 417.648438 373.976562 C 417.648438 373.976562 335.707031 212.867188 273.324219 275.253906 C 210.957031 337.632812 372.0625 419.585938 372.0625 419.585938 C 390.832031 429.925781 400.871094 443.820312 406.273438 455.992188 L 399.527344 462.75 C 394.507812 467.769531 396.253906 477.648438 403.433594 484.8125 C 410.601562 491.992188 420.476562 493.730469 425.492188 488.722656 L 442.171875 472.027344 L 453.277344 483.132812 C 393.800781 549.28125 356.085938 635.378906 351.40625 730.183594 L 334.382812 730.183594 L 334.382812 706.734375 C 334.382812 699.625 326.160156 693.890625 316.019531 693.890625 C 305.871094 693.890625 297.660156 699.625 297.660156 706.734375 L 297.660156 716.28125 C 285.230469 721.058594 268.296875 723.804688 247.710938 717.832031 C 247.710938 717.832031 75.851562 661.847656 75.851562 750.078125 C 75.851562 838.273438 247.710938 782.320312 247.710938 782.320312 C 268.296875 776.34375 285.230469 779.089844 297.660156 783.875 L 297.660156 793.414062 C 297.660156 800.507812 305.871094 806.257812 316.019531 806.257812 C 326.160156 806.257812 334.382812 800.507812 334.382812 793.414062 L 334.382812 769.820312 L 351.398438 769.820312 C 355.976562 863.980469 393.164062 949.523438 451.882812 1015.5625 L 439.347656 1028.070312 L 422.773438 1011.515625 C 417.75 1006.488281 407.867188 1008.234375 400.6875 1015.398438 C 393.53125 1022.578125 391.785156 1032.453125 396.8125 1037.476562 L 403.554688 1044.210938 C 398.136719 1056.375 388.121094 1070.304688 369.320312 1080.625 C 369.320312 1080.625 208.230469 1162.585938 270.601562 1224.964844 C 332.984375 1287.328125 414.925781 1126.214844 414.925781 1126.214844 C 425.257812 1107.449219 439.171875 1097.410156 451.351562 1092.015625 L 458.089844 1098.746094 C 463.117188 1103.773438 472.992188 1102.027344 480.160156 1094.863281 C 487.324219 1087.683594 489.082031 1077.792969 484.058594 1072.78125 L 467.378906 1056.117188 L 479.640625 1043.839844 C 546.207031 1105.246094 633.648438 1144.363281 730.144531 1149.175781 L 730.144531 1166.402344 L 706.714844 1166.402344 C 699.609375 1166.402344 693.855469 1174.621094 693.855469 1184.796875 C 693.855469 1194.929688 699.609375 1203.132812 706.714844 1203.132812 L 716.246094 1203.132812 C 721.03125 1215.574219 723.777344 1232.523438 717.796875 1253.097656 C 717.796875 1253.097656 661.835938 1424.9375 750.046875 1424.9375 C 838.273438 1424.9375 782.28125 1253.097656 782.28125 1253.097656 C 776.308594 1232.523438 779.058594 1215.574219 783.835938 1203.132812 L 793.378906 1203.132812 C 800.476562 1203.132812 806.238281 1194.929688 806.238281 1184.796875 C 806.238281 1174.621094 800.476562 1166.402344 793.378906 1166.402344 L 769.796875 1166.402344 L 769.796875 1149.21875 C 865.726562 1144.640625 952.78125 1106.253906 1019.316406 1045.691406 L 1029.761719 1056.167969 L 1013.191406 1072.722656 C 1008.179688 1077.75 1009.925781 1087.617188 1017.078125 1094.8125 C 1024.253906 1101.972656 1034.144531 1103.730469 1039.171875 1098.703125 L 1045.90625 1091.953125 C 1058.074219 1097.359375 1071.992188 1107.378906 1082.320312 1126.164062 C 1082.320312 1126.164062 1164.273438 1287.265625 1226.648438 1224.898438 C 1289.023438 1162.519531 1127.914062 1080.574219 1127.914062 1080.574219 C 1109.144531 1070.234375 1099.105469 1056.3125 1093.695312 1044.160156 L 1100.445312 1037.410156 C 1105.472656 1032.382812 1103.71875 1022.523438 1096.539062 1015.328125 C 1089.382812 1008.183594 1079.5 1006.417969 1074.480469 1011.445312 L 1057.800781 1028.113281 L 1047.277344 1017.582031 C 1106.996094 951.347656 1144.863281 865.039062 1149.515625 769.972656 L 1165.703125 769.972656 L 1165.703125 793.414062 C 1165.703125 800.507812 1173.921875 806.257812 1184.058594 806.257812 C 1194.214844 806.257812 1202.417969 800.507812 1202.417969 793.414062 L 1202.417969 783.875 C 1214.851562 779.089844 1231.792969 776.34375 1252.371094 782.320312 C 1252.371094 782.320312 1424.238281 838.273438 1424.238281 750.078125 C 1424.238281 661.847656 1252.371094 717.832031 1252.371094 717.832031 Z M 1222.429688 282.277344 C 1222.429688 282.277344 1201.226562 273.546875 1170.582031 290.628906 C 1172.046875 290.929688 1173.378906 291.4375 1174.355469 292.4375 C 1179.519531 297.574219 1174.867188 310.589844 1163.976562 321.488281 C 1153.085938 332.378906 1140.070312 337.019531 1134.917969 331.871094 C 1132.71875 329.675781 1132.386719 326 1133.488281 321.703125 C 1120.214844 336.734375 1106.25 356.949219 1092.167969 384.152344 C 1092.167969 384.152344 1151.003906 237.339844 1222.429688 282.277344 Z M 280.390625 282.207031 C 280.390625 282.207031 271.675781 303.410156 288.765625 334.074219 C 289.054688 332.59375 289.585938 331.242188 290.566406 330.269531 C 295.722656 325.132812 308.722656 329.753906 319.621094 340.652344 C 330.511719 351.550781 335.160156 364.566406 330.003906 369.714844 C 327.796875 371.910156 324.132812 372.246094 319.851562 371.152344 C 334.875 384.425781 355.070312 398.390625 382.28125 412.484375 C 382.28125 412.484375 235.472656 353.625 280.390625 282.207031 Z M 85.769531 749.992188 C 85.769531 749.992188 94.589844 771.136719 128.339844 780.734375 C 127.503906 779.476562 126.941406 778.160156 126.941406 776.792969 C 126.941406 769.507812 139.417969 763.578125 154.8125 763.578125 C 170.222656 763.578125 182.703125 769.507812 182.703125 776.792969 C 182.703125 779.898438 180.351562 782.730469 176.539062 784.996094 C 196.550781 783.757812 220.714844 779.339844 249.917969 770.058594 C 249.917969 770.058594 104.492188 832.257812 85.769531 749.992188 Z M 277.558594 1217.890625 C 277.558594 1217.890625 298.753906 1226.601562 329.40625 1209.523438 C 327.925781 1209.21875 326.597656 1208.703125 325.625 1207.730469 C 320.464844 1202.574219 325.109375 1189.558594 336.003906 1178.660156 C 346.890625 1167.761719 359.910156 1163.128906 365.054688 1168.285156 C 367.261719 1170.488281 367.585938 1174.15625 366.488281 1178.425781 C 379.761719 1163.398438 393.722656 1143.199219 407.808594 1115.980469 C 407.808594 1115.980469 348.96875 1262.800781 277.558594 1217.890625 Z M 1219.582031 1217.933594 C 1219.582031 1217.933594 1228.308594 1196.753906 1211.214844 1166.089844 C 1210.917969 1167.582031 1210.390625 1168.898438 1209.414062 1169.878906 C 1204.261719 1175.035156 1191.253906 1170.386719 1180.355469 1159.488281 C 1169.472656 1148.589844 1164.820312 1135.589844 1169.976562 1130.433594 C 1172.183594 1128.222656 1175.847656 1127.921875 1180.125 1129.015625 C 1165.109375 1115.730469 1144.917969 1101.777344 1117.695312 1087.683594 C 1117.695312 1087.683594 1264.5 1146.523438 1219.582031 1217.933594 Z M 729.949219 249.261719 C 729.949219 249.261719 667.753906 103.847656 750.011719 85.121094 C 750.011719 85.121094 728.863281 93.945312 719.265625 127.699219 C 720.523438 126.855469 721.824219 126.289062 723.210938 126.289062 C 730.5 126.289062 736.425781 138.78125 736.425781 154.171875 C 736.425781 169.589844 730.5 182.0625 723.210938 182.0625 C 720.09375 182.0625 717.289062 179.707031 715.027344 175.910156 C 716.261719 195.898438 720.675781 220.0625 729.949219 249.261719 Z M 749.925781 360.367188 C 904.605469 360.367188 1037.78125 450.910156 1100.355469 581.710938 C 1026.515625 473.605469 897.347656 375.269531 749.925781 375.269531 C 602.535156 375.269531 473.367188 473.605469 399.507812 581.710938 C 462.09375 450.910156 595.25 360.367188 749.925781 360.367188 Z M 1005.410156 496.375 C 1001.070312 492.035156 994.015625 492.042969 989.675781 496.375 C 988.089844 497.984375 986.648438 500.378906 985.675781 503.003906 C 985.460938 499.171875 986.761719 495.28125 989.675781 492.355469 C 995.132812 486.894531 1003.980469 486.894531 1009.429688 492.355469 C 1014.886719 497.804688 1014.886719 506.652344 1009.429688 512.121094 C 1006.511719 515.027344 1002.617188 516.335938 998.785156 516.113281 C 1001.402344 515.148438 1003.8125 513.695312 1005.402344 512.121094 C 1009.753906 507.773438 1009.753906 500.710938 1005.410156 496.375 Z M 914.765625 555.773438 L 917.816406 558.820312 L 887.554688 589.097656 C 882.640625 584.949219 875.371094 585.035156 870.753906 589.667969 L 828.554688 631.867188 C 814.378906 622.472656 798.429688 615.613281 781.308594 611.808594 L 781.308594 551.152344 C 781.308594 544.582031 776.246094 539.269531 769.832031 538.761719 L 769.832031 496.0625 L 774.15625 496.0625 C 778.105469 496.0625 781.308594 489.882812 781.308594 482.28125 C 781.308594 474.664062 778.105469 468.515625 774.15625 468.515625 L 769.832031 468.515625 L 769.832031 446.023438 C 840.273438 450.445312 904.222656 478.742188 953.65625 522.984375 L 937.296875 539.347656 L 934.242188 536.285156 C 931.453125 533.496094 924.820312 535.585938 919.441406 540.957031 C 914.074219 546.328125 911.980469 552.984375 914.765625 555.773438 Z M 750.453125 843.457031 C 699 843.457031 657.148438 801.59375 657.148438 750.148438 C 657.148438 698.683594 699 656.832031 750.453125 656.832031 C 801.914062 656.832031 843.777344 698.683594 843.777344 750.148438 C 843.777344 801.59375 801.914062 843.457031 750.453125 843.457031 Z M 551.785156 718.691406 C 545.238281 718.691406 539.925781 723.753906 539.40625 730.183594 L 496.695312 730.183594 L 496.695312 725.863281 C 496.695312 721.902344 490.527344 718.691406 482.925781 718.691406 C 475.3125 718.691406 469.15625 721.902344 469.15625 725.863281 L 469.15625 730.183594 L 446.375 730.183594 C 450.816406 661.523438 477.976562 599.109375 520.433594 550.28125 L 537.476562 567.34375 L 534.414062 570.398438 C 531.625 573.1875 533.710938 579.808594 539.089844 585.179688 C 544.46875 590.570312 551.105469 592.679688 553.894531 589.863281 L 556.953125 586.808594 L 587.21875 617.085938 C 583.070312 621.984375 583.160156 629.257812 587.796875 633.886719 L 629.824219 675.90625 C 621.789062 688.921875 615.773438 703.324219 612.292969 718.691406 Z M 609.273438 769.820312 C 609.273438 772.425781 607.160156 774.5625 604.539062 774.5625 L 555.222656 774.5625 C 552.597656 774.5625 550.480469 772.425781 550.480469 769.820312 C 550.480469 767.21875 552.597656 765.085938 555.222656 765.085938 L 604.539062 765.085938 C 607.160156 765.085938 609.273438 767.21875 609.273438 769.820312 Z M 514.199219 503.003906 C 513.21875 500.378906 511.777344 497.984375 510.191406 496.375 C 505.84375 492.042969 498.796875 492.035156 494.460938 496.375 C 490.121094 500.710938 490.121094 507.773438 494.460938 512.121094 C 496.046875 513.695312 498.457031 515.148438 501.074219 516.113281 C 497.242188 516.335938 493.359375 515.027344 490.433594 512.121094 C 484.984375 506.652344 484.984375 497.804688 490.433594 492.355469 C 495.886719 486.894531 504.730469 486.894531 510.191406 492.355469 C 513.109375 495.28125 514.40625 499.171875 514.199219 503.003906 Z M 730.183594 468.515625 L 725.863281 468.515625 C 721.910156 468.515625 718.710938 474.664062 718.710938 482.28125 C 718.710938 489.882812 721.910156 496.0625 725.863281 496.0625 L 730.183594 496.0625 L 730.183594 538.761719 C 723.769531 539.269531 718.710938 544.582031 718.710938 551.152344 L 718.710938 612.058594 C 702.402344 615.792969 687.191406 622.300781 673.578125 631.109375 L 632.058594 589.613281 C 627.433594 584.984375 620.164062 584.886719 615.25 589.046875 L 584.980469 558.785156 L 588.039062 555.714844 C 590.835938 552.914062 588.742188 546.296875 583.371094 540.914062 C 577.988281 535.535156 571.363281 533.453125 568.558594 536.242188 L 565.503906 539.296875 L 548.308594 522.105469 C 597.390625 478.5625 660.589844 450.664062 730.183594 446.082031 Z M 734.921875 554.578125 L 734.921875 603.90625 C 734.921875 606.503906 732.808594 608.648438 730.183594 608.648438 C 727.574219 608.648438 725.457031 606.503906 725.457031 603.90625 L 725.457031 554.578125 C 725.457031 551.960938 727.574219 549.84375 730.183594 549.84375 C 732.808594 549.84375 734.921875 551.960938 734.921875 554.578125 Z M 636.558594 666.410156 C 634.707031 668.253906 631.71875 668.253906 629.863281 666.410156 L 594.984375 631.546875 C 593.132812 629.695312 593.132812 626.683594 594.984375 624.832031 C 596.835938 622.980469 599.832031 622.980469 601.679688 624.832031 L 636.558594 659.722656 C 638.40625 661.574219 638.414062 664.5625 636.558594 666.410156 Z M 655.0625 861.714844 C 656.90625 859.855469 659.902344 859.855469 661.753906 861.714844 C 663.613281 863.566406 663.605469 866.589844 661.753906 868.421875 L 626.878906 903.289062 C 625.027344 905.136719 622.03125 905.136719 620.191406 903.289062 C 618.328125 901.4375 618.328125 898.457031 620.191406 896.605469 Z M 749.925781 629.1875 C 702.261719 629.1875 660.484375 657.484375 636.59375 692.445312 C 656.835938 650.140625 699.90625 620.855469 749.925781 620.855469 C 799.960938 620.855469 843.035156 650.140625 863.277344 692.445312 C 839.386719 657.484375 797.617188 629.1875 749.925781 629.1875 Z M 749.925781 390.988281 C 743.792969 390.988281 738.8125 395.953125 738.8125 402.109375 C 738.8125 404.277344 739.460938 406.957031 740.53125 409.539062 C 737.738281 406.957031 735.964844 403.332031 735.964844 399.269531 C 735.964844 391.554688 742.21875 385.289062 749.925781 385.289062 C 757.636719 385.289062 763.902344 391.554688 763.902344 399.269531 C 763.902344 403.332031 762.121094 406.957031 759.332031 409.539062 C 760.40625 406.957031 761.050781 404.277344 761.050781 402.109375 C 761.050781 395.953125 756.074219 390.988281 749.925781 390.988281 Z M 863.421875 833.746094 C 865.261719 831.878906 868.261719 831.894531 870.109375 833.746094 L 904.984375 868.621094 C 906.84375 870.472656 906.84375 873.457031 904.984375 875.308594 C 903.148438 877.160156 900.148438 877.160156 898.296875 875.308594 L 863.421875 840.445312 C 861.582031 838.59375 861.554688 835.578125 863.421875 833.746094 Z M 844.910156 638.433594 C 843.066406 640.257812 840.078125 640.257812 838.222656 638.433594 C 836.371094 636.582031 836.371094 633.585938 838.222656 631.738281 L 873.097656 596.84375 C 874.949219 595.003906 877.945312 595.003906 879.796875 596.84375 C 881.652344 598.695312 881.652344 601.710938 879.796875 603.558594 Z M 399.507812 764.101562 C 391.792969 764.101562 385.535156 757.851562 385.535156 750.148438 C 385.535156 742.445312 391.792969 736.195312 399.507812 736.195312 C 403.539062 736.195312 407.148438 737.90625 409.683594 740.652344 C 407.101562 739.644531 404.449219 739.042969 402.359375 739.042969 C 396.203125 739.042969 391.222656 744.011719 391.222656 750.148438 C 391.222656 756.304688 396.203125 761.277344 402.359375 761.277344 C 404.449219 761.277344 407.101562 760.667969 409.683594 759.652344 C 407.148438 762.390625 403.539062 764.101562 399.507812 764.101562 Z M 510.191406 1007.960938 C 504.730469 1013.417969 495.886719 1013.417969 490.433594 1007.960938 C 484.984375 1002.5 484.984375 993.652344 490.433594 988.195312 C 493.359375 985.285156 497.242188 983.976562 501.074219 984.171875 C 498.457031 985.164062 496.046875 986.59375 494.460938 988.195312 C 490.121094 992.542969 490.121094 999.59375 494.460938 1003.9375 C 498.796875 1008.269531 505.84375 1008.269531 510.191406 1003.90625 C 511.777344 1002.320312 513.21875 999.9375 514.199219 997.300781 C 514.40625 1001.140625 513.109375 1005.03125 510.191406 1007.960938 Z M 531.582031 929.707031 L 534.652344 932.789062 L 519.027344 948.40625 C 477.320312 899.75 450.6875 837.84375 446.347656 769.820312 L 469.15625 769.820312 L 469.15625 774.148438 C 469.15625 778.109375 475.3125 781.304688 482.925781 781.304688 C 490.527344 781.304688 496.695312 778.109375 496.695312 774.148438 L 496.695312 769.820312 L 539.40625 769.820312 C 539.925781 776.25 545.238281 781.304688 551.785156 781.304688 L 612.21875 781.304688 C 615.527344 796.066406 621.179688 809.917969 628.699219 822.53125 C 628.660156 822.5625 628.613281 822.5625 628.570312 822.582031 L 584.957031 866.226562 C 580.328125 870.851562 580.238281 878.132812 584.394531 883.03125 L 554.121094 913.300781 L 551.066406 910.234375 C 548.269531 907.445312 541.628906 909.527344 536.265625 914.917969 C 530.878906 920.304688 528.792969 926.917969 531.582031 929.707031 Z M 730.144531 1004.101562 L 725.828125 1004.101562 C 721.871094 1004.101562 718.664062 1010.257812 718.664062 1017.875 C 718.664062 1025.488281 721.871094 1031.648438 725.828125 1031.648438 L 730.144531 1031.648438 L 730.144531 1054.214844 C 659.808594 1049.566406 595.976562 1021.140625 546.695312 976.796875 L 562.675781 960.808594 L 565.738281 963.867188 C 568.53125 966.664062 575.148438 964.5625 580.53125 959.183594 C 585.910156 953.8125 587.996094 947.183594 585.214844 944.402344 L 582.148438 941.3125 L 612.425781 911.058594 C 617.324219 915.210938 624.597656 915.117188 629.234375 910.492188 L 671.695312 868.015625 C 685.753906 877.453125 701.640625 884.332031 718.664062 888.230469 L 718.664062 949 C 718.664062 955.566406 723.730469 960.871094 730.144531 961.402344 Z M 735.964844 1101.042969 C 735.964844 1096.914062 737.820312 1093.226562 740.671875 1090.664062 C 739.507812 1093.226562 738.8125 1095.957031 738.8125 1098.203125 C 738.8125 1104.339844 743.792969 1109.335938 749.925781 1109.335938 C 756.074219 1109.335938 761.050781 1104.339844 761.050781 1098.203125 C 761.050781 1095.972656 760.398438 1093.269531 759.289062 1090.738281 C 762.09375 1093.304688 763.902344 1096.945312 763.902344 1101.042969 C 763.902344 1108.757812 757.636719 1115.007812 749.925781 1115.007812 C 742.21875 1115.007812 735.964844 1108.757812 735.964844 1101.042969 Z M 770.023438 1250.878906 C 770.023438 1250.878906 832.226562 1396.292969 749.964844 1415.035156 C 749.964844 1415.035156 771.125 1406.21875 780.707031 1372.449219 C 779.460938 1373.292969 778.160156 1373.871094 776.765625 1373.871094 C 769.472656 1373.871094 763.5625 1361.386719 763.5625 1345.96875 C 763.5625 1330.558594 769.472656 1318.066406 776.765625 1318.066406 C 779.875 1318.066406 782.691406 1320.46875 784.953125 1324.257812 C 783.71875 1304.242188 779.304688 1280.085938 770.023438 1250.878906 Z M 765.058594 945.589844 L 765.058594 896.261719 C 765.058594 893.644531 767.179688 891.527344 769.796875 891.527344 C 772.410156 891.527344 774.527344 893.644531 774.527344 896.261719 L 774.527344 945.589844 C 774.527344 948.191406 772.410156 950.308594 769.796875 950.308594 C 767.179688 950.308594 765.058594 948.191406 765.058594 945.589844 Z M 769.796875 1054.28125 L 769.796875 1031.648438 L 774.113281 1031.648438 C 778.074219 1031.648438 781.277344 1025.488281 781.277344 1017.875 C 781.277344 1010.257812 778.074219 1004.101562 774.113281 1004.101562 L 769.796875 1004.101562 L 769.796875 961.402344 C 776.214844 960.871094 781.277344 955.566406 781.277344 949 L 781.277344 888.488281 C 797.738281 884.820312 813.09375 878.3125 826.84375 869.472656 L 867.917969 910.535156 C 872.539062 915.167969 879.8125 915.261719 884.726562 911.113281 L 914.988281 941.371094 L 911.933594 944.417969 C 909.144531 947.226562 911.234375 953.878906 916.613281 959.234375 C 921.996094 964.605469 928.617188 966.699219 931.414062 963.917969 L 934.46875 960.835938 L 952.183594 978.570312 C 902.949219 1022.078125 839.558594 1049.910156 769.796875 1054.28125 Z M 1009.429688 1007.960938 C 1003.980469 1013.417969 995.132812 1013.417969 989.675781 1007.960938 C 987.09375 1005.359375 985.765625 1002.003906 985.640625 998.609375 C 987.003906 1000.78125 988.449219 1002.699219 989.675781 1003.90625 C 994.015625 1008.269531 1001.070312 1008.269531 1005.410156 1003.9375 C 1009.753906 999.59375 1009.753906 992.542969 1005.402344 988.195312 C 1004.054688 986.851562 1001.710938 985.394531 999.042969 984.15625 C 1002.789062 984.027344 1006.578125 985.335938 1009.429688 988.195312 C 1014.886719 993.652344 1014.886719 1002.5 1009.429688 1007.960938 Z M 980.117188 950.453125 L 962.503906 932.804688 L 965.566406 929.765625 C 968.347656 926.976562 966.273438 920.359375 960.890625 914.960938 C 955.507812 909.570312 948.878906 907.488281 946.082031 910.292969 L 943.03125 913.34375 L 912.757812 883.082031 C 916.910156 878.160156 916.808594 870.894531 912.1875 866.269531 L 870.792969 824.878906 C 879.003906 811.675781 885.136719 797.082031 888.664062 781.457031 L 948.296875 781.457031 C 954.847656 781.457031 960.15625 776.394531 960.683594 769.972656 L 1003.386719 769.972656 L 1003.386719 774.304688 C 1003.386719 778.265625 1009.554688 781.457031 1017.160156 781.457031 C 1024.765625 781.457031 1030.929688 778.265625 1030.929688 774.304688 L 1030.929688 769.972656 L 1054.570312 769.972656 C 1050.128906 838.878906 1022.816406 901.539062 980.117188 950.453125 Z M 890.804688 730.324219 C 890.804688 727.714844 892.929688 725.585938 895.558594 725.585938 L 944.863281 725.585938 C 947.46875 725.585938 949.597656 727.714844 949.597656 730.324219 C 949.597656 732.949219 947.46875 735.058594 944.863281 735.058594 L 895.558594 735.058594 C 892.929688 735.058594 890.804688 732.949219 890.804688 730.324219 Z M 1030.929688 730.324219 L 1030.929688 726.019531 C 1030.929688 722.066406 1024.765625 718.832031 1017.160156 718.832031 C 1009.554688 718.832031 1003.386719 722.066406 1003.386719 726.019531 L 1003.386719 730.324219 L 960.683594 730.324219 C 960.15625 723.917969 954.847656 718.828125 948.296875 718.828125 L 888.664062 718.828125 C 885.289062 703.902344 879.515625 689.871094 871.824219 677.121094 L 915.023438 633.941406 C 919.636719 629.308594 919.738281 622.042969 915.585938 617.109375 L 945.851562 586.851562 L 948.910156 589.914062 C 951.703125 592.703125 958.34375 590.613281 963.710938 585.230469 C 969.09375 579.859375 971.1875 573.222656 968.398438 570.433594 L 965.332031 567.378906 L 981.386719 551.316406 C 1023.363281 600.023438 1050.179688 662.109375 1054.570312 730.324219 Z M 1100.355469 764.101562 C 1096.285156 764.101562 1092.640625 762.339844 1090.109375 759.558594 C 1092.671875 760.625 1095.351562 761.277344 1097.507812 761.277344 C 1103.65625 761.277344 1108.640625 756.304688 1108.640625 750.148438 C 1108.640625 744.011719 1103.65625 739.042969 1097.507812 739.042969 C 1095.351562 739.042969 1092.671875 739.679688 1090.109375 740.730469 C 1092.640625 737.976562 1096.285156 736.195312 1100.355469 736.195312 C 1108.066406 736.195312 1114.320312 742.445312 1114.320312 750.148438 C 1114.320312 757.851562 1108.066406 764.101562 1100.355469 764.101562 Z M 1371.746094 719.40625 C 1372.582031 720.644531 1373.152344 721.972656 1373.152344 723.347656 C 1373.152344 730.648438 1360.675781 736.554688 1345.253906 736.554688 C 1329.863281 736.554688 1317.375 730.648438 1317.375 723.347656 C 1317.375 720.25 1319.738281 717.417969 1323.53125 715.171875 C 1303.53125 716.402344 1279.382812 720.808594 1250.179688 730.105469 C 1250.179688 730.105469 1395.597656 667.890625 1414.332031 750.148438 C 1414.332031 750.148438 1405.5 728.996094 1371.746094 719.40625 Z M 1371.746094 719.40625 " fill-opacity="1" fill-rule="nonzero"/></g></svg>